# xmcd CD database file
#
# Track frame offsets:
#	150
#	15585
#	38430
#	50542
#	72561
#	92108
#	108472
#	125151
#	141619
#	153341
#	163314
#	180757
#	208849
#	223871
#	238700
#	255878
#
# Disc length: 3653 seconds
#
# Revision: 0
# Processed by: cddbd v1.5.2PL0 Copyright (c) Steve Scherf et al.
# Submitted via: CDex 1.50
#
DISCID=e80e4310
DTITLE=Dixie-balls - Tequila (музыка для парков)
DYEAR=1900
DGENRE=Jazz
TTITLE0=Jazz me blues
TTITLE1=Ragtime Vabank
TTITLE2=Из-за острова на стрежень
TTITLE3=Basin street blues
TTITLE4=At the jazz band ball
TTITLE5=Amapola
TTITLE6=Preacher
TTITLE7=Kansas city
TTITLE8=Подмосковные вечера
TTITLE9=Bei mir bist du shon
TTITLE10=O Sole Mio
TTITLE11=Фантазия на русские народные песни
TTITLE12=La Vie en Rose
TTITLE13=Sant Louis Blues
TTITLE14=Tequila
TTITLE15=Очи черные
EXTD=
EXTT0=
EXTT1=
EXTT2=
EXTT3=
EXTT4=
EXTT5=
EXTT6=
EXTT7=
EXTT8=
EXTT9=
EXTT10=
EXTT11=
EXTT12=
EXTT13=
EXTT14=
EXTT15=
PLAYORDER=
